<svg xmlns="http://www.w3.org/2000/svg" xmlns:xlink="http://www.w3.org/1999/xlink" xml:space="preserve" version="1.1" style="shape-rendering:geometricPrecision;text-rendering:geometricPrecision;image-rendering:optimizeQuality;" viewBox="0 0 60000 75000" x="0px" y="0px" fill-rule="evenodd" clip-rule="evenodd"><defs><style type="text/css">
   
    .fil0 {fill:black;fill-rule:nonzero}
   
  </style></defs><g><path class="fil0" d="M2896 31132c3787,-2703 7760,-5463 12215,-7750 939,-482 1899,-942 2882,-1376 59,-497 155,-992 296,-1469 307,-1040 824,-2002 1620,-2739l16870 -15619 0 0c446,-398 864,-585 1390,-511 469,66 987,354 1672,907 9,7 17,14 25,22 656,574 1025,1031 1171,1477 165,506 54,950 -261,1458l-4 6 1 0 -8283 12855c1471,61 2906,378 4315,927 2111,823 4161,2171 6186,3963l0 0c447,390 667,782 711,1096 26,182 -2,348 -76,488 -83,156 -215,270 -388,333 -232,84 -540,67 -886,-89 -27,-12 -52,-27 -75,-44l0 0c-3344,-2496 -5889,-3637 -8397,-3584 -1309,28 -2623,381 -4049,1036l-1507 2339c-587,911 -1445,1587 -2418,2071 -1138,565 -2434,866 -3629,966 -25,2 -49,2 -73,-1 -144,-3 -270,-18 -381,-41 -374,295 -745,590 -1113,883 -3201,2546 -6169,4907 -9048,5681 -1131,304 -2712,495 -4366,514 -1491,17 -3045,-106 -4384,-413 -470,-108 -824,-262 -1072,-454 -289,-223 -441,-496 -469,-806 -26,-286 61,-584 249,-886 248,-398 685,-820 1275,-1241l1 1zm14028 -4507c-137,0 -249,-112 -250,-249 0,-137 112,-249 249,-250 436,-1 877,18 1311,59 423,39 841,100 1246,180 135,27 222,159 195,294 -27,135 -159,222 -294,195 -385,-77 -786,-134 -1193,-173 -421,-39 -846,-58 -1265,-57l0 1zm1002 -3713c-834,376 -1650,772 -2452,1183l0 -1c-4400,2258 -8349,5002 -12115,7690 -504,360 -867,704 -1059,1013 -97,155 -143,289 -134,395 7,82 60,164 163,244 157,122 408,225 762,307 1278,293 2767,411 4199,394 1582,-18 3090,-200 4166,-489 2720,-731 5625,-3042 8758,-5534 299,-238 600,-477 903,-717 -79,-133 -116,-281 -114,-434 1,-78 10,-152 28,-222 165,-649 767,-864 1328,-1065 152,-54 300,-107 411,-160 672,-319 1379,-758 1984,-1226 562,-435 1030,-890 1286,-1288l2168 -3364c-2608,490 -5053,1199 -7365,2067 -253,547 -470,1128 -621,1676 -33,120 -59,273 -86,430 -100,589 -208,1220 -816,1494 -68,31 -140,53 -215,67 -198,37 -400,7 -586,-107 -163,-99 -306,-260 -411,-493 -57,-126 -104,-278 -137,-457 -3,-17 -5,-34 -6,-51 -39,-437 -54,-892 -40,-1352zm3991 3856l41 -32c-7,127 35,253 116,352 44,6 92,10 143,11 1105,-93 2298,-369 3335,-885 851,-423 1597,-1008 2099,-1787l12449 -19320 1 0c184,-300 256,-543 176,-787 -98,-300 -394,-649 -936,-1124 -569,-459 -968,-693 -1281,-738 -256,-36 -485,77 -750,314l0 0 -16860 15610c-679,629 -1126,1466 -1395,2379 -327,1108 -392,2324 -294,3423 20,103 47,189 78,258 35,77 68,121 98,140 7,5 17,5 27,4 7,-1 18,-5 31,-11 221,-100 291,-512 357,-897 30,-174 59,-344 104,-511 213,-772 544,-1601 926,-2327 370,-703 793,-1319 1211,-1705l11808 -10933c5,-5 11,-10 16,-15 322,-288 630,-425 935,-441 311,-16 594,93 864,297 14,10 28,21 41,33 256,235 418,498 457,813 36,296 -42,616 -259,975 -5,9 -10,19 -16,28l-8725 13541c-307,476 -840,1000 -1471,1488 -649,503 -1409,974 -2131,1317 -158,75 -318,132 -482,191 -271,97 -557,199 -712,339zm12813 -18094c-119,-88 -231,-136 -338,-130 -123,7 -268,80 -445,238l-7 6 -11809 10933c-237,219 -483,542 -722,926 2322,-822 4776,-1483 7391,-1928l5965 -9258 8 -12c116,-192 160,-343 145,-463 -13,-107 -80,-210 -190,-312zm-2750 10509l-1395 2165c1122,-412 2198,-636 3281,-659 2698,-58 5380,1125 8855,3713 78,33 140,50 185,55 -35,-142 -172,-339 -439,-572l-2 -1c-1955,-1730 -3927,-3028 -5950,-3818 -1478,-577 -2985,-881 -4535,-883zm-18117 23999c-160,-21 -319,-42 -479,-64l-306 -44 -117 791c266,39 533,76 800,111l102 -794zm27374 -11996c-97,136 -195,271 -293,407l-172 233 641 479c160,-218 320,-435 476,-655l-651 -465 -1 1zm-1943 2496c-171,201 -345,398 -521,595l595 535c180,-201 358,-404 533,-610l-607 -521 0 1zm-2166 2301c-124,119 -249,237 -374,354l-202 185 537 593c200,-182 398,-367 593,-554l-554 -578zm-2389 2058l-289 219c-114,85 -229,169 -344,253l467 649c119,-86 238,-174 356,-261 98,-74 197,-149 295,-223l-485 -637zm-2607 1771c-225,136 -454,266 -683,394l388 700c109,-61 217,-122 326,-184 126,-73 253,-146 378,-222l-408 -688 -1 0zm-2798 1441c-241,105 -483,207 -727,306l296 743c252,-98 501,-206 749,-314l-318 -735zm-2956 1084c-252,75 -504,144 -758,213l203 774c98,-26 197,-53 295,-80 163,-45 324,-92 486,-140l-225 -768 -1 1zm-3069 718c-148,27 -297,50 -446,74 -111,17 -222,34 -334,49l112 792 210 -31c197,-31 395,-61 591,-96l-134 -789 1 1zm-3133 362c-263,15 -526,28 -789,37l27 800c181,-6 361,-14 542,-23l265 -15 -45 -799zm-3160 31c-215,-9 -431,-19 -646,-31l-144 -9 -50 798c198,12 397,23 595,32l213 9 33 -799 -1 0zm-6591 -2438c85,-204 320,-299 523,-214 204,85 299,320 214,523 -316,752 -641,1479 -979,2180 -277,573 -559,1120 -848,1638 1603,532 3409,896 5329,1089 33,-1 66,2 99,10 1679,164 3444,197 5236,99 15,-2 31,-3 47,-3 249,-14 498,-30 747,-49 15,-2 32,-4 47,-4 328,-25 656,-55 984,-89 15,-3 31,-5 46,-7 11,-1 21,-1 32,-1 522,-55 1046,-122 1568,-199l3 -1c16,-3 32,-6 48,-7 226,-34 452,-70 677,-108 11,-4 21,-8 33,-12 47,-15 95,-21 142,-18 754,-131 1505,-285 2248,-464 16,-5 33,-9 49,-12 792,-191 1575,-409 2344,-654 155,-49 309,-100 463,-151 3,-1 6,-2 9,-4 12,-5 24,-8 36,-12 250,-84 499,-172 745,-262 48,-32 105,-52 162,-60 1526,-568 2979,-1247 4313,-2041 14,-9 28,-18 42,-25 1005,-601 1942,-1267 2792,-1998 28,-33 60,-61 95,-82 1753,-1530 3126,-3343 3945,-5443 79,-205 310,-308 516,-228 19,7 38,16 55,26 2043,1067 4355,1525 6505,1187 1933,-304 3738,-1255 5100,-2992 135,-173 386,-204 559,-69 152,118 194,325 112,490 -1104,2233 -2781,3930 -5220,4614 -2467,692 -5247,202 -7812,-830 -58,98 -116,195 -176,292 2218,1022 4667,1796 7045,1930 1980,112 3910,-222 5608,-1232 190,-112 435,-49 547,141 112,190 49,435 -141,547 -1846,1098 -3929,1461 -6058,1341 -2486,-140 -5033,-943 -7333,-2002 2711,1665 5872,2763 8967,3000 2918,223 5773,-319 8124,-1875 184,-122 431,-71 553,113 111,168 79,389 -67,518 -2366,2486 -5266,3505 -8331,3553 -3698,58 -7626,-1306 -11126,-3204 -15,-8 -29,-17 -42,-26 -111,110 -224,218 -338,325l12 15c179,241 368,476 565,704 1273,936 2612,1710 3950,2216 1499,567 2993,795 4383,529 217,-41 426,101 467,317 41,217 -101,426 -317,467 -1463,280 -3011,75 -4555,-472 1160,600 2409,1041 3692,1300 3053,616 6296,197 8985,-1583 184,-122 431,-71 553,113 114,172 77,401 -80,529 -497,407 -1023,778 -1573,1109 -3038,1830 -6566,2303 -9779,1775 -423,-69 -840,-156 -1251,-260 -1256,-97 -2541,-551 -3805,-1265 -1429,-807 -2833,-1945 -4133,-3270l-204 129 121 142c2972,3479 6277,7347 17031,6420 220,-18 413,146 431,366 18,220 -146,413 -366,431l-5 0c-5675,781 -9425,69 -12174,-1280 48,87 64,192 36,296 -57,213 -276,340 -489,283 -1202,-322 -2408,-994 -3576,-1920 -1167,-926 -2298,-2109 -3347,-3451 -34,17 -69,33 -103,50 1247,1881 2748,3792 4840,5197 2087,1402 4779,2312 8425,2209 94,-9 188,-19 283,-29 219,-24 416,134 441,353 1,12 2,24 2,35 0,4 1,8 1,11 9,220 -161,406 -381,416 -94,4 -187,7 -280,10 -3585,347 -6370,-377 -8615,-1632 -2298,-1285 -4016,-3119 -5445,-4928 -115,-145 -296,-434 -471,-713 -68,-108 -135,-215 -194,-308 -217,90 -436,177 -656,263 807,1281 1678,2436 2588,3403 938,997 1914,1788 2898,2302 195,102 271,342 169,538 -102,195 -342,271 -538,169 -1069,-558 -2115,-1403 -3111,-2461 -976,-1037 -1908,-2283 -2769,-3666 -57,20 -113,40 -170,60 1286,3244 2970,5604 4819,7205 2168,1876 4563,2707 6804,2693l1 0c220,-16 412,149 428,369 16,220 -149,412 -369,428 -2394,187 -5001,-633 -7436,-2553 -2133,-1683 -4137,-4214 -5747,-7657 -113,34 -225,66 -339,99 592,1384 1237,2662 1939,3766 743,1168 1551,2143 2431,2842 173,137 201,388 64,561 -137,173 -388,201 -561,64 -950,-755 -1816,-1797 -2606,-3039 -748,-1175 -1427,-2527 -2044,-3981 -94,25 -188,49 -283,73 607,1818 1276,3485 2325,4986 1080,1545 2575,2932 4845,4158 82,37 164,74 248,110 202,88 294,323 206,525 -1,3 -3,6 -4,10 -5,12 -10,23 -16,34 -102,196 -343,272 -539,170 -93,-48 -184,-97 -274,-146 -2459,-1121 -4131,-2475 -5386,-4031 -1300,-1611 -2141,-3424 -2945,-5412 -6,-16 -12,-32 -16,-48 -273,56 -547,110 -821,160 480,1462 1017,2830 1621,4048 659,1328 1399,2481 2231,3387 149,162 139,415 -23,564 -162,149 -415,139 -564,-23 -886,-964 -1667,-2180 -2359,-3575 -640,-1290 -1203,-2730 -1702,-4264l-44 7c488,2198 1169,4226 2193,5984 1076,1848 2536,3403 4555,4552 192,109 259,352 150,544 -109,192 -352,259 -544,150l-2 -1c-2205,-1109 -3838,-2676 -5081,-4571 -1228,-1874 -2071,-4066 -2707,-6455 -86,10 -171,21 -257,30 174,1614 553,3177 1099,4619 601,1585 1403,3024 2357,4226 137,173 109,424 -64,561 -173,137 -424,109 -561,-64 -1004,-1266 -1849,-2779 -2479,-4442 -571,-1507 -967,-3137 -1148,-4817 -96,9 -191,18 -287,26l358 10899c7,220 -166,404 -386,411 -220,7 -404,-166 -411,-386l-357 -10863 -29 2c-62,1985 -228,3797 -559,5385 -357,1713 -905,3172 -1718,4319 -128,179 -377,221 -556,94 -179,-128 -221,-377 -94,-556 745,-1050 1252,-2410 1587,-4019 317,-1525 479,-3267 541,-5179 -146,6 -291,12 -436,16 -129,1401 -313,2704 -574,3888 -283,1286 -658,2437 -1152,3426 -98,198 -338,278 -536,180 -198,-98 -278,-338 -180,-536 463,-927 816,-2016 1086,-3242 248,-1127 425,-2366 551,-3699 -177,2 -353,2 -529,2 -335,1893 -854,3787 -1579,5441 -679,1549 -1541,2892 -2604,3839 -165,147 -417,132 -564,-33 -147,-165 -132,-417 33,-564 973,-866 1769,-2114 2404,-3560 683,-1557 1178,-3341 1502,-5134 -186,-5 -371,-11 -556,-19 -324,1448 -712,2762 -1193,3911 -525,1254 -1161,2315 -1943,3144 -151,161 -404,168 -564,17 -161,-151 -168,-404 -17,-564 713,-756 1298,-1736 1787,-2903 448,-1070 814,-2296 1122,-3648 -249,-16 -496,-36 -742,-57 -511,1443 -1141,2824 -1820,4026 -742,1314 -1545,2416 -2318,3162 -159,153 -411,148 -564,-11 -153,-159 -148,-411 11,-564 720,-694 1474,-1733 2177,-2977 626,-1108 1211,-2380 1696,-3719 -194,-22 -387,-46 -579,-72 -428,1162 -900,2210 -1434,3123 -573,980 -1218,1807 -1954,2453 -166,145 -418,128 -563,-38 -145,-166 -128,-418 38,-563 669,-587 1261,-1347 1792,-2256 486,-830 920,-1783 1316,-2839 -203,-33 -404,-68 -604,-105 -307,761 -632,1418 -1028,2010 -444,664 -971,1241 -1652,1784 -173,137 -424,109 -561,-64 -137,-173 -109,-424 64,-561 615,-490 1089,-1009 1486,-1602 339,-507 625,-1073 895,-1727 -298,-65 -592,-135 -880,-210 -480,916 -991,1742 -1540,2462 -604,793 -1255,1456 -1964,1969 -179,129 -428,90 -558,-89 -129,-179 -90,-428 89,-558 645,-467 1241,-1075 1798,-1807 488,-641 948,-1377 1386,-2197 -255,-76 -506,-156 -752,-240 -482,798 -1015,1571 -1625,2278 -144,167 -396,185 -563,41 -167,-144 -185,-396 -41,-563 309,-358 609,-749 901,-1171 293,-423 580,-880 861,-1367 343,-594 676,-1231 1002,-1906 322,-667 642,-1384 960,-2142l4 -1zm40686 684c-1173,453 -2406,577 -3662,459 912,147 1819,220 2709,206 1762,-27 3464,-398 5026,-1218 -1303,379 -2676,555 -4073,554l0 -1zm-7352 -499c-1359,-551 -2700,-1287 -3973,-2101 -70,80 -141,159 -214,238 1348,722 2757,1361 4186,1863l1 0zm-3457 -2719c1674,1063 3461,1982 5236,2493 775,223 1547,368 2304,412 -2627,-489 -5225,-1529 -7501,-2956 -13,17 -26,34 -40,50l1 1zm-1607 3083c-272,-201 -541,-410 -806,-624 -280,234 -569,462 -866,683 190,309 404,608 640,896 1437,1753 3659,3061 6182,3708 67,4 133,8 199,10 96,3 184,39 251,98 263,59 530,110 799,154 1722,283 3538,262 5311,-122 -1235,84 -2483,-7 -3702,-253 -3077,-621 -5971,-2237 -8008,-4550zm-4733 1967c983,1241 2036,2334 3117,3192 987,783 1995,1368 2993,1687 -2247,-1227 -3804,-2880 -5254,-4420 -196,-208 -390,-415 -575,-608 -93,50 -186,99 -280,148l-1 1zm7855 -7398c2393,948 4959,1396 7211,764 969,-272 1882,-747 2702,-1473 -914,502 -1899,825 -2916,985 -2189,344 -4525,-72 -6620,-1080 -117,273 -242,540 -376,803l-1 1z"/></g><text x="0" y="60015" fill="#000000" font-size="5px" font-weight="bold" font-family="'Helvetica Neue', Helvetica, Arial-Unicode, Arial, Sans-serif">Created by Olena Panasovska</text><text x="0" y="60020" fill="#000000" font-size="5px" font-weight="bold" font-family="'Helvetica Neue', Helvetica, Arial-Unicode, Arial, Sans-serif">from the Noun Project</text></svg>